<?xml version="1.0" standalone="no"?>
<!DOCTYPE svg PUBLIC "-//W3C//DTD SVG 20010904//EN"
 "http://www.w3.org/TR/2001/REC-SVG-20010904/DTD/svg10.dtd">
<svg version="1.0" xmlns="http://www.w3.org/2000/svg"
 width="800.000000pt" height="253.000000pt" viewBox="0 0 800.000000 253.000000"
 preserveAspectRatio="xMidYMid meet">
<metadata>
Created by potrace 1.15, written by Peter Selinger 2001-2017
</metadata>
<g transform="translate(0.000000,253.000000) scale(0.100000,-0.100000)"
fill="#000000" stroke="none">
<path d="M2388 2441 c-104 -41 -190 -127 -245 -247 -50 -109 -41 -301 20 -454
30 -74 116 -201 217 -322 102 -123 351 -344 537 -478 l41 -30 100 74 c126 94
293 238 398 344 102 102 232 274 278 367 67 135 94 323 62 441 -32 119 -127
239 -231 289 -68 34 -185 45 -262 26 -83 -21 -207 -86 -276 -145 l-67 -57 -65
56 c-157 133 -369 190 -507 136z"/>
<path d="M263 2380 c-130 -26 -228 -126 -253 -260 -14 -75 -13 -1638 1 -1715
20 -109 79 -187 179 -234 l55 -26 338 -3 c332 -3 337 -3 337 17 0 20 -7 20
-337 23 -332 3 -339 3 -383 26 -61 32 -97 67 -128 127 l-27 50 -3 862 c-2 849
-2 862 18 916 25 67 84 131 148 160 46 21 60 22 505 25 446 3 457 3 457 22 0
20 -9 20 -432 19 -238 -1 -452 -5 -475 -9z"/>
<path d="M7070 2371 c0 -21 3 -21 325 -21 299 0 328 -2 377 -20 74 -28 122
-70 157 -142 l31 -61 0 -858 c0 -832 -1 -860 -20 -911 -25 -68 -90 -132 -158
-158 -48 -18 -78 -20 -382 -20 -326 0 -330 0 -330 -20 0 -21 3 -21 343 -18
l342 3 56 26 c71 33 125 87 158 158 l26 56 0 880 0 880 -24 53 c-29 65 -112
143 -178 168 -42 16 -91 18 -385 22 -336 3 -338 3 -338 -17z"/>
<path d="M5867 2353 c-27 -4 -28 -7 -23 -37 6 -30 3 -34 -30 -50 -36 -17 -37
-17 -61 6 l-24 22 -37 -37 -37 -37 22 -21 c20 -21 21 -23 5 -55 -14 -30 -21
-34 -53 -34 -36 0 -38 -2 -44 -40 -8 -47 -2 -60 29 -60 20 0 25 -7 30 -42 7
-42 -2 -59 -37 -71 -13 -4 11 -77 28 -83 7 -3 23 0 35 6 20 11 26 8 53 -18 28
-28 29 -34 19 -57 -7 -14 -12 -30 -12 -34 0 -14 83 -47 87 -35 11 33 29 42 68
36 36 -7 40 -10 43 -41 3 -33 4 -33 40 -27 20 3 43 6 50 6 7 0 12 14 12 35 0
29 5 36 35 51 35 16 37 16 59 -5 l24 -22 36 32 37 32 -23 24 c-22 24 -22 24
-3 59 17 31 23 35 51 32 36 -4 44 8 44 69 0 27 -4 32 -27 35 -25 3 -28 7 -31
45 -3 38 0 44 23 55 27 12 27 25 -2 81 -13 26 -15 27 -42 13 -27 -14 -30 -14
-55 13 -28 29 -33 50 -14 69 15 15 -2 35 -43 52 -28 12 -32 11 -52 -13 -19
-23 -27 -25 -57 -19 -28 6 -36 14 -44 40 -9 33 -14 35 -79 25z m150 -174 c115
-56 145 -200 61 -295 -42 -48 -83 -67 -143 -67 -60 0 -101 19 -143 67 -45 51
-59 106 -43 164 16 61 50 105 103 131 54 27 110 27 165 0z"/>
<path d="M1224 2327 c-3 -8 -4 -45 -2 -83 l3 -69 153 -3 152 -3 0 -504 0 -504
-152 -3 -153 -3 0 -80 0 -80 388 -3 387 -2 0 85 0 85 -155 0 -155 0 0 505 0
505 155 0 156 0 -3 83 -3 82 -383 3 c-315 2 -383 0 -388 -11z"/>
<path d="M4825 1963 c-94 -22 -97 -23 -91 -51 3 -15 8 -50 11 -78 l7 -52 -39
-12 c-21 -7 -61 -25 -90 -41 l-52 -29 -50 57 c-50 55 -51 56 -78 42 -15 -8
-60 -47 -101 -87 l-74 -73 56 -59 56 -58 -34 -56 c-18 -30 -39 -69 -46 -86
-14 -34 -12 -34 -103 -16 -37 7 -69 10 -71 7 -6 -11 -34 -145 -41 -198 -6 -49
-5 -52 17 -57 12 -3 48 -11 78 -18 l55 -13 6 -60 c4 -33 10 -76 13 -96 l8 -35
-72 -32 c-69 -30 -72 -33 -66 -59 7 -27 75 -172 95 -202 7 -11 22 -8 80 19
l71 33 65 -69 c36 -38 65 -73 65 -78 0 -5 -16 -37 -35 -71 l-35 -63 38 -25
c43 -28 177 -97 189 -97 5 0 23 27 41 60 18 33 37 62 42 65 13 8 192 -28 195
-40 2 -5 7 -41 10 -79 l7 -69 80 7 c44 4 103 11 130 17 l50 11 -6 78 -7 78 87
41 88 42 56 -56 56 -55 66 54 c36 30 78 71 93 90 l27 36 -51 59 -52 60 36 55
c19 30 35 60 35 66 0 6 -28 10 -70 10 l-69 0 -40 -53 c-111 -151 -267 -234
-456 -244 -118 -6 -200 10 -302 59 -94 45 -227 177 -271 269 -161 335 4 731
353 846 102 33 256 37 350 9 95 -28 191 -84 261 -151 l64 -62 0 34 c0 25 8 43
29 63 l28 29 -38 37 -38 38 34 65 c19 36 35 68 35 72 0 10 -84 62 -159 99 -71
36 -62 40 -113 -53 -19 -36 -36 -56 -44 -53 -11 4 -43 11 -161 32 -19 3 -22
13 -28 79 l-7 75 -77 -1 c-42 -1 -85 -3 -96 -6z"/>
<path d="M5680 1279 c0 -166 0 -166 23 -164 19 1 22 8 25 52 l3 51 51 4 c59 6
83 28 94 84 16 88 -27 134 -129 137 l-67 2 0 -166z"/>
<path d="M4940 1278 c-29 -84 -55 -159 -58 -166 -3 -10 3 -13 23 -10 22 2 31
11 40 38 11 34 13 35 69 38 l57 3 16 -40 c12 -32 21 -41 40 -41 12 0 23 3 23
8 0 4 -24 77 -54 162 -48 140 -56 155 -78 158 -24 3 -28 -5 -78 -150z"/>
<path d="M6482 1268 c3 -160 3 -163 26 -166 l22 -3 0 165 0 166 -25 0 -25 0 2
-162z"/>
<path d="M982 503 c3 -198 5 -222 24 -263 28 -58 77 -108 134 -134 42 -19 66
-21 328 -24 l282 -3 0 320 0 321 -45 0 -45 0 -2 -272 -3 -273 -225 0 c-262 0
-287 6 -328 83 -22 39 -24 57 -29 252 l-6 210 -44 0 -44 0 3 -217z"/>
<path d="M1880 400 l0 -320 48 0 47 0 0 267 0 268 200 3 c282 4 319 -7 361
-103 15 -32 19 -78 22 -237 l4 -198 44 0 44 0 0 193 c0 215 -9 265 -60 335
-34 47 -99 84 -178 101 -31 6 -153 11 -292 11 l-240 0 0 -320z"/>
<path d="M2780 400 l0 -320 45 0 45 0 0 320 0 320 -45 0 -45 0 0 -320z"/>
<path d="M3230 706 c-69 -15 -106 -35 -146 -78 -69 -73 -84 -140 -84 -373 l0
-175 50 0 50 0 0 135 0 135 340 0 340 0 0 45 0 45 -337 2 -338 3 3 35 c5 48
30 87 72 113 33 21 49 22 315 27 l280 5 0 45 0 45 -245 2 c-163 1 -263 -3
-300 -11z"/>
<path d="M3897 714 c-4 -4 -7 -148 -7 -321 l0 -313 50 0 50 0 -2 318 -3 317
-40 3 c-23 2 -44 0 -48 -4z"/>
</g>
</svg>
